PathFileType	4	(X/Y/Z)	 s05c0303.trc
DataRate	CameraRate	NumFrames	NumMarkers	Units	OrigDataRate	OrigDataStartFrame	OrigNumFrames
200	200	5	48	mm	200	1001	2000
Frame#	Time	racr			lacr			c7			jug			rlel			rdr			llel			ldr			s2			lic			ric			lasi			rasi			rpsi			lpsi			rgt			lgt			rth1			rth2			rth3			rth4			rlfc			rsh1			rsh2			rsh3			rsh4			rlmal			rcal			rtoe			rmt5			rmt1			lth1			lth2			lth4			lth3			llfc			lmfc			lsh1			lsh2			lsh3			lsh4			llmal			lcal			ltoe			lmt5			SBIKE			LBIKE			RBIKE			
		X1	Y1	Z1	X2	Y2	Z2	X3	Y3	Z3	X4	Y4	Z4	X5	Y5	Z5	X6	Y6	Z6	X7	Y7	Z7	X8	Y8	Z8	X9	Y9	Z9	X10	Y10	Z10	X11	Y11	Z11	X12	Y12	Z12	X13	Y13	Z13	X14	Y14	Z14	X15	Y15	Z15	X16	Y16	Z16	X17	Y17	Z17	X18	Y18	Z18	X19	Y19	Z19	X20	Y20	Z20	X21	Y21	Z21	X22	Y22	Z22	X23	Y23	Z23	X24	Y24	Z24	X25	Y25	Z25	X26	Y26	Z26	X27	Y27	Z27	X28	Y28	Z28	X29	Y29	Z29	X30	Y30	Z30	X31	Y31	Z31	X32	Y32	Z32	X33	Y33	Z33	X34	Y34	Z34	X35	Y35	Z35	X36	Y36	Z36	X37	Y37	Z37	X38	Y38	Z38	X39	Y39	Z39	X40	Y40	Z40	X41	Y41	Z41	X42	Y42	Z42	X43	Y43	Z43	X44	Y44	Z44	X45	Y45	Z45	X46	Y46	Z46	X47	Y47	Z47	X48	Y48	Z48	
1001	5.0050	776.516782	1235.670110	-66.334055	831.262217	1251.281211	-352.904718	809.165818	1327.621371	-214.304716	730.921722	1180.966021	-225.445840	544.545873	1091.267862	25.428889	685.632066	937.228015	-59.415770	614.549064	1139.950868	-547.653182	701.344250	922.800962	-465.767963	229.611317	1283.512996	-359.977895	403.861518	1234.483343	-450.284978	324.800874	1278.979713	-181.531316	415.067825	1172.260344	-400.351478	357.549732	1207.728247	-193.356408	261.963477	1326.177588	-314.717706	292.413811	1314.519399	-393.977539	238.679013	1170.246959	-163.726286	328.823582	1150.611901	-492.220507	298.494956	1062.188577	-124.505176	356.826135	998.753692	-100.591624	376.676692	913.163195	-95.727762	389.598174	1015.637895	-101.160582	452.019768	782.426258	-89.746093	375.991958	698.908848	-77.119425	364.793448	610.602406	-87.492344	314.339495	542.634952	-101.763932	398.065895	600.164653	-103.208994	271.214595	413.617220	-115.580449	204.052244	393.991557	-167.402441	486.379763	312.962584	-138.784758	377.848031	308.295970	-81.502615	NaN	NaN	NaN	384.851239	1019.486297	-471.648997	431.952815	954.623030	-443.086568	457.698481	968.566554	-420.908887	443.365792	865.132563	-433.828939	459.291303	723.371744	-389.444613	408.860031	724.580317	-290.511052	353.544972	657.910305	-438.594626	297.084574	591.769432	-436.831206	215.074775	560.571623	-453.058793	309.726494	569.961577	-406.946447	123.154325	484.888794	-463.280098	61.272753	525.384668	-430.146271	129.197134	242.617642	-377.565396	77.832195	324.553123	-460.080228	-162.224886	902.232809	-264.422963	-43.439654	85.137083	-474.356510	-51.553782	80.351655	-76.799106	
1002	5.0100	777.826187	1235.196918	-67.216093	831.126024	1253.288288	-354.491770	809.344233	1328.154867	-215.231405	731.890755	1181.288739	-226.949364	545.688486	1091.691434	26.409612	685.757784	937.356005	-59.538258	613.332617	1140.194350	-547.219961	701.424117	922.457330	-464.722965	229.269267	1282.109131	-357.997812	402.669711	1234.869206	-449.399050	325.586187	1275.966631	-179.735891	414.299708	1172.160141	-400.141304	358.439477	1204.821783	-192.473587	261.575851	1323.560585	-308.490169	291.036940	1313.637945	-391.331757	239.126838	1166.568439	-162.872094	328.414560	1150.487016	-491.680217	297.758413	1057.018692	-125.077443	354.716520	992.013718	-102.334990	372.905799	905.845725	-98.992369	388.010062	1008.316504	-102.704696	446.758172	774.834604	-93.998468	371.364691	690.342341	-79.621651	361.422569	602.164943	-89.275422	311.597381	533.229209	-102.595684	394.510910	591.970796	-105.592734	270.197236	403.257249	-115.417816	202.963095	383.549214	-166.948481	485.266684	301.061584	-139.601578	376.800282	297.556886	-81.653729	NaN	NaN	NaN	386.441932	1018.907554	-472.402600	434.595751	955.106517	-443.359606	459.740898	969.660925	-421.316118	447.809603	865.845286	-433.982393	465.740414	725.433702	-389.047774	415.718709	726.249730	-289.873059	359.125183	662.477772	-438.490324	300.938353	597.930285	-436.935863	218.051996	568.804347	-453.109146	313.310621	575.420269	-407.397430	124.747562	495.057123	-463.624701	63.041612	535.965419	-430.431089	130.422244	253.180274	-377.498164	79.031729	335.106023	-460.100050	-163.561958	901.474986	-266.478708	-43.444027	85.140525	-474.311791	-51.569341	80.340524	-76.797289	
1003	5.0150	779.176813	1234.671568	-68.471785	830.949235	1255.222531	-356.294304	809.518398	1328.660782	-216.211610	732.883207	1181.468872	-228.488850	547.243135	1092.067704	27.570497	685.973397	937.392797	-59.373899	612.076360	1140.299563	-546.843384	701.205599	922.509180	-464.715813	228.761153	1280.705018	-355.548744	401.242406	1235.186317	-448.341871	326.549380	1272.846150	-177.705833	413.467071	1172.144799	-400.052930	359.435375	1201.790459	-191.456911	261.086454	1322.786634	-306.831918	289.574317	1312.874844	-388.354188	239.779319	1162.795356	-161.731803	327.557397	1150.334792	-490.858019	297.057453	1051.899013	-125.496537	352.655391	985.373856	-103.909169	368.996772	898.905456	-101.831683	386.448279	1001.098818	-104.269604	441.514703	767.212650	-98.321226	367.129522	681.790703	-82.023349	358.196169	593.461778	-91.221903	309.071920	523.793769	-103.300104	391.488507	583.549731	-108.097716	269.018452	393.191582	-115.327394	201.488876	373.752020	-166.516493	483.529734	289.756100	-139.781055	375.172647	286.896647	-81.754301	NaN	NaN	NaN	388.022866	1018.466266	-473.117605	437.333202	955.633253	-443.558024	461.897032	970.667296	-421.395807	452.344909	866.864680	-433.949782	472.488609	727.902064	-388.716827	422.936211	728.188257	-289.279606	365.039197	667.225118	-438.385421	305.272711	604.127842	-436.947414	221.580329	576.926132	-453.078299	317.202640	580.887382	-407.711824	127.047373	505.200458	-463.655815	65.534141	546.559755	-430.593112	132.332471	263.685396	-377.391815	81.018576	345.593343	-460.073155	-166.330769	901.344897	-268.321040	-43.436936	85.132660	-474.305115	-51.535790	80.336825	-76.770033	
1004	5.0200	780.759357	1234.189007	-69.749989	830.687011	1257.105824	-358.166771	809.758489	1329.171269	-217.334481	733.866005	1181.658636	-230.104570	549.129682	1092.485536	29.015633	686.270886	937.327129	-59.126128	610.823021	1140.291561	-546.495849	700.641752	922.864545	-465.831872	228.112521	1279.256713	-352.699343	399.668813	1235.616829	-447.196078	327.654133	1269.642000	-175.730384	412.522154	1172.004511	-399.875695	360.579507	1198.613077	-190.313759	261.421709	1320.439094	-304.196640	288.499363	1311.917266	-385.383827	240.666431	1158.871364	-160.404699	326.639737	1150.375690	-489.930872	296.394318	1046.879222	-125.788591	350.712613	978.893229	-105.498176	365.043227	892.075350	-104.349528	384.831075	993.982097	-105.901405	436.505112	759.498840	-102.099440	363.803623	673.035532	-84.365389	355.106556	584.776967	-93.337255	306.865977	514.528053	-104.103459	388.106189	575.605496	-110.950333	267.357428	383.524508	-115.277441	199.615949	364.485836	-166.141790	481.304624	278.145700	-140.082347	373.035823	276.371268	-81.930070	NaN	NaN	NaN	389.623381	1018.182173	-473.799627	440.174922	956.643718	-443.793544	464.365421	972.355068	-421.733788	457.129439	868.245622	-433.697773	479.613627	730.558822	-388.364439	430.438369	730.570733	-288.829341	371.183790	672.063489	-438.046134	309.608685	610.496331	-436.359642	225.887131	585.141801	-453.173595	321.394374	586.598542	-407.635972	130.097415	515.199569	-463.253829	68.408890	556.884467	-430.520965	134.841420	273.950837	-377.198215	83.784368	356.180451	-460.139553	-167.118978	901.497816	-268.695272	-43.396448	85.140550	-474.285152	-51.528771	80.315245	-76.752960	
1005	5.0250	782.409191	1233.871988	-71.183081	830.657297	1259.163361	-361.190121	809.992459	1329.685715	-218.576962	734.851795	1181.912124	-231.836605	551.596763	1092.941989	30.727761	686.690950	937.106658	-58.792034	609.525561	1140.130327	-546.186567	700.651229	922.756123	-465.490526	227.398244	1277.828441	-349.602821	397.920228	1235.956042	-445.920308	328.913689	1266.346136	-173.534571	411.511027	1171.841696	-399.529664	361.752933	1195.386639	-189.101353	261.783003	1317.887514	-300.878054	287.450746	1311.321317	-382.544494	241.608147	1154.653336	-159.026791	325.448037	1150.422018	-488.890285	295.698091	1041.998023	-125.931109	348.828990	972.645116	-106.937003	361.159388	885.589671	-106.724777	383.229425	986.911732	-107.605333	430.869703	751.915595	-106.145260	360.133406	664.701976	-86.799849	351.961411	576.267208	-95.569246	304.494881	505.373644	-104.803112	384.585431	567.504576	-114.207250	265.377914	374.154300	-115.386512	197.436070	355.658435	-165.928057	478.549093	266.549547	-140.340992	370.335220	266.135222	-82.209459	NaN	NaN	NaN	391.197119	1018.320477	-474.107522	443.182692	958.083252	-443.996790	467.620276	974.294166	-421.230732	462.157368	870.209496	-433.371698	486.887300	733.576045	-388.198825	436.983625	732.871147	-288.832629	377.320433	676.865389	-437.293068	314.790241	616.617472	-435.937250	230.609053	592.989301	-452.705416	326.316098	592.336963	-407.509443	133.831172	525.211950	-462.850684	71.944764	567.177513	-430.202302	138.121558	284.187827	-377.055153	87.200554	366.348420	-459.796413	-167.309818	901.356081	-268.388564	-43.386609	85.173670	-474.275821	-51.506803	80.333323	-76.724394	
